<?xml version="1.0" standalone="no"?>
<!DOCTYPE svg PUBLIC "-//W3C//DTD SVG 20010904//EN"
 "http://www.w3.org/TR/2001/REC-SVG-20010904/DTD/svg10.dtd">
<svg version="1.0" xmlns="http://www.w3.org/2000/svg"
 width="700.000000pt" height="700.000000pt" viewBox="0 0 700.000000 700.000000"
 preserveAspectRatio="xMidYMid meet">
<metadata>
Created by potrace 1.14, written by Peter Selinger 2001-2017
</metadata>
<g transform="translate(0.000000,700.000000) scale(0.100000,-0.100000)"
fill="#000000" stroke="none">
<path d="M3120 6950 c-155 -26 -157 -27 -270 -61 -305 -90 -507 -215 -760
-469 -174 -175 -321 -383 -425 -605 -45 -95 -110 -265 -120 -314 -2 -9 -11
-43 -20 -76 -9 -33 -18 -71 -20 -85 -2 -14 -6 -36 -9 -49 -29 -131 -27 -434 4
-587 16 -83 19 -95 35 -153 38 -132 144 -380 167 -389 4 -2 8 -8 8 -13 0 -5
16 -33 35 -61 19 -29 33 -53 32 -55 -2 -1 -37 -7 -78 -13 -41 -6 -87 -13 -104
-16 -16 -2 -55 -7 -85 -10 -44 -5 -85 -23 -205 -89 l-150 -83 -60 -98 c-56
-93 -61 -108 -91 -246 -25 -117 -30 -165 -28 -235 11 -267 6 -246 81 -327 21
-23 82 -91 135 -152 54 -61 108 -116 120 -122 30 -15 216 -70 265 -78 21 -3
71 -12 110 -18 72 -13 258 -14 343 -1 61 8 148 33 154 44 4 5 32 24 63 41 31
18 64 42 74 54 9 11 21 18 25 13 11 -11 -35 -56 -81 -79 -22 -12 -42 -24 -45
-28 -8 -12 -83 -47 -115 -53 -144 -29 -325 -29 -473 -2 -64 12 -148 32 -186
44 -37 11 -79 23 -93 25 -14 3 -32 11 -40 18 -16 13 -13 17 -63 -69 -14 -23
-54 -91 -89 -150 -36 -60 -133 -223 -217 -363 l-152 -255 -11 -90 c-27 -234
-34 -327 -34 -495 0 -178 13 -247 56 -293 40 -43 87 -74 87 -58 0 25 87 140
162 213 92 91 160 131 344 203 151 59 233 77 374 79 126 2 167 -6 264 -55 215
-107 313 -245 347 -484 15 -109 17 -476 2 -461 -4 3 -8 98 -9 209 -1 111 -4
220 -8 242 -23 131 -82 279 -131 330 -25 26 -102 86 -133 103 -33 18 -121 53
-162 64 -64 16 -219 9 -410 -19 -139 -20 -238 -62 -370 -156 -111 -79 -161
-127 -217 -210 l-47 -67 -1 -146 -1 -146 61 -101 c33 -56 74 -133 90 -170 33
-75 42 -83 179 -157 137 -75 178 -82 446 -85 129 -1 251 2 271 7 20 4 51 9 70
12 19 2 48 7 64 12 43 10 188 112 270 189 38 36 74 65 80 66 63 4 223 -1 315
-11 185 -20 1523 -16 1630 5 8 2 44 13 80 24 71 24 88 27 199 36 41 3 76 7 78
9 2 2 -10 27 -27 55 -146 249 -169 439 -89 730 35 125 66 191 115 247 123 138
245 250 303 275 17 8 31 17 31 21 0 5 6 8 13 8 6 0 57 19 112 41 125 51 217
60 345 34 185 -37 298 -85 376 -162 47 -47 48 -47 46 30 -2 60 -58 221 -104
295 -23 37 -47 77 -54 90 -6 13 -55 68 -108 122 -53 54 -96 103 -96 108 0 6 6
12 13 15 6 2 -27 5 -74 6 -48 0 -109 3 -135 6 -27 2 -83 7 -124 10 -106 7
-218 21 -345 45 -153 29 -168 33 -173 49 -3 10 0 12 14 7 11 -4 30 -10 44 -12
14 -2 57 -11 95 -18 39 -8 88 -18 110 -22 22 -4 46 -8 53 -10 7 -1 50 -6 95
-10 45 -3 98 -8 117 -10 19 -3 119 -7 222 -10 l186 -5 108 40 c79 30 128 56
183 99 96 73 230 210 237 242 3 14 16 61 28 106 l22 80 -29 120 c-20 81 -40
135 -62 169 -17 28 -46 73 -63 101 -34 55 -187 206 -231 228 -14 8 -82 33
-151 57 -117 41 -132 43 -235 44 -60 0 -129 -3 -152 -7 -41 -7 -261 -44 -313
-52 -22 -4 -120 -17 -160 -22 -55 -6 -119 -15 -145 -20 -29 -6 -27 -4 28 52
159 161 474 717 512 904 2 8 10 44 18 80 9 36 18 85 22 110 3 25 8 53 11 63
10 32 12 281 3 347 -5 36 -12 83 -15 105 -5 35 -38 205 -50 260 -3 11 -7 29
-10 40 -2 11 -11 47 -19 80 -9 33 -17 67 -19 76 -18 72 -86 252 -127 336 -132
271 -317 496 -601 731 -185 153 -262 198 -394 232 -70 18 -92 22 -254 39 -41
5 -194 8 -340 8 -207 0 -288 -4 -370 -17z m-347 -1814 c98 -42 137 -149 88
-244 -58 -114 -220 -128 -298 -25 -40 53 -44 137 -9 196 43 75 140 107 219 73z
m1698 -52 c111 -107 14 -329 -123 -282 -38 13 -86 71 -94 113 -29 157 113 268
217 169z m-486 -287 c11 -3 25 -6 32 -6 21 -2 53 -59 58 -102 9 -95 -109 -310
-203 -370 -50 -31 -149 -66 -217 -75 -75 -11 -251 -5 -323 10 -138 29 -240
104 -289 213 -37 80 -44 118 -33 170 5 21 11 50 14 65 6 36 32 73 59 85 12 5
69 10 127 12 57 1 105 3 107 4 4 5 648 -1 668 -6z"/>
<path d="M5294 1750 c-28 -5 -73 -19 -100 -30 -48 -21 -167 -93 -192 -117 -7
-7 -17 -13 -21 -13 -14 0 -144 -138 -172 -184 -151 -242 -213 -489 -166 -659
19 -70 92 -257 128 -331 12 -23 64 -83 117 -133 76 -73 103 -93 127 -94 17 0
39 -2 50 -5 116 -23 281 -22 530 2 74 8 153 53 216 123 115 127 155 176 209
258 33 48 64 94 70 101 7 7 33 55 59 106 l47 92 2 127 3 126 -42 103 c-87 211
-204 343 -380 425 -171 80 -247 105 -342 108 -51 2 -115 0 -143 -5z"/>
</g>
</svg>
