<svg xmlns="http://www.w3.org/2000/svg" xmlns:xlink="http://www.w3.org/1999/xlink" style="enable-background:new 0 0 1000 1000" x="0" y="0" version="1.1" viewBox="0 0 1000 1000" xml:space="preserve"><style type="text/css">.st0,.st1,.st2{display:none}.st1{fill:none}.st2{fill:#fff}</style><g id="Calque_3" class="st0"><image width="1000" height="1000" xlink:href="bibito.png" style="display:inline;overflow:visible"/></g><g id="Calque_2"><g><path d="M155,848c15-9,24-22,54-28s57-7,66-5s44,12,55,42c16.8,45.9,8,88,8,88l3,7c0,0,6-63-8-96 c-14.2-33.4-58-47-58-47s-39-5-65,6s-37,12-57,30c-18.7,16.8-25.8,32.7-26.6,34.7c1.6,0.4,1.6-0.7,1.6-0.7v1.1 C134.9,869.1,145.7,853.6,155,848z" class="st1"/><path d="M126.4,879.7c-0.1,0.1-0.1,0.2-0.1,0.2L121,892c0,0,2.8-5.1,7-11.9V879C128,879,128,880.1,126.4,879.7z" class="st2"/><path d="M749,977l58-4l18-11l27-31l21-31l12-23l1-36l-13-32l-15.3-21.3l-4.6-4.6c-7.3-7.3-16-13.3-25.5-17.5L803.5,755 c-11.6-5.1-24.3-7.4-37-6.3c-10.8,0.9-23.7,3.6-34.5,10.4c-24,15-38.6,26.7-50.3,48.9c-11.7,22.1-12.9,24.8-16.3,37.4 C662,858,660,870,661,884s22,60,22,60l1.3,2.3L711,972L749,977z"/><path d="M887,554l-19-30l-25.8-24c0,0-24.2-10-41.2-14s-33-1-55,3s-75.9,11-75.9,11s15.9-10,36.9-46s39-60,48-103s9-70-7-137 c-16-67-36-89-52-113s-65-66-86-79S559,4,486,4S359,35,359,35S258,88,221,213s34,211,34,211l-49,7l-41,23l-17,28l-9,42l2,48 l44.8,50.7c0.5-0.7,1.5-1,2.2-0.2c1.7,1.8,3.7,2.3,6.1,2.7c2.7,0.4,5.1,1.1,7.6,2.1c2.7,1,5.4,1.4,8.1,2.2c2.6,0.8,5,1.9,7.5,2.8 c4.6,1.7,9.7,1.5,14.4,2.3c5.5,0.9,10.8,2.6,16.3,3c5.3,0.4,10.7,0.5,16.1,0.4c5.6-0.1,11.2-0.2,16.8-0.6c5.1-0.3,10.3-1,15.4-1.8 c5-0.8,9.7-2,14.1-4.6c4-2.4,7.7-5.4,11.9-7.6c2.3-1.2,4.6-2.2,6.6-3.8c1.8-1.4,2.8-3.5,4.7-4.9c1.6-1.1,3.1,1.5,1.5,2.6 c-1.1,0.8-1.8,2-2.7,3c-0.9,1.1-1.9,1.9-3.1,2.6c-2.4,1.5-5,2.6-7.4,4c-4.8,2.7-8.9,6.5-14,8.7c-4.7,2.1-9.9,2.8-15,3.4 c-5.5,0.7-10.9,1.3-16.4,1.5c-5.6,0.2-11.3,0.4-16.9,0.4c-5.5,0-11.2-0.1-16.6-1.1c-5.5-0.9-10.8-2.5-16.3-3.1 c-2.5-0.3-5-0.5-7.4-1c-2.5-0.5-4.8-1.6-7.1-2.5c-2.3-0.8-4.6-1.5-6.9-2c-2.5-0.5-4.8-1.6-7.3-2.4c-2.2-0.7-4.5-0.9-6.7-1.4 c-2.1-0.5-3.9-1.5-5.4-3.1c-0.2-0.2-0.3-0.5-0.4-0.8L113,745.4c0,0-15,108.6,0,123.6c7.9,7.9,11.6,10.2,13.4,10.7 c0.9-2,8-17.9,26.6-34.7c20-18,31-19,57-30s65-6,65-6s43.8,13.6,58,47c14,33,8,96,8,96l-3-7c0,0,8.8-42.1-8-88c-11-30-46-40-55-42 s-36-1-66,5s-39,19-54,28c-9.3,5.6-20.1,21.1-27,32.1V922l17,29l10,21l31,17l21,6h66l27-5l25-17l20-19h30l39,4l73-1l88,1l50-3 l21-7l30.4-2.5c-5.8-8.9-19.5-31.9-23.4-54.5c-5-29,9-79,20-91s32-38,56-47s31-15,59-10s44,13,53,21c3.2,2.9,6.4,6.3,9.2,9.6 L851,761l-9-30l-17-28l-28-29l7.4-2.5c-5.1,0.5-10.3,0.5-15.4,0.3c-9.4-0.4-18.8-1.1-28.2-1.8c-4.7-0.3-9.4-0.6-14-0.9 c-4.7-0.3-9.3-1.3-14.1-1.8c-4.6-0.4-9.1-0.9-13.6-1.8c-4.5-0.9-9.2-1.4-13.7-2.3c-4.7-1-9.3-2.4-14-3.3c-2.1-0.4-4.3-0.1-6.5-0.4 c-2-0.3-3.9-1.3-5.7-2.2c-1.7-0.8-0.2-3.4,1.5-2.6c2.3,1.1,4.2,1.9,6.8,2c2.5,0.1,4.8,0.4,7.3,1c5,1.2,10,2.5,15.1,3.4 c4.5,0.7,9,1.5,13.5,2.3c4.5,0.8,9,0.8,13.5,1.5c9.1,1.4,18.3,1.8,27.6,2.4c9.3,0.6,18.6,1.4,27.9,1.6c4.5,0.1,8.9-0.1,13.4-0.6 c3.3-0.3,6.5-0.2,9.7-0.6l5.6-1.9l23-9l24-19l19-20l8-31L887,554z M386.5,315c-14.1,0-25.5-11.4-25.5-25.5s11.4-25.5,25.5-25.5 s25.5,11.4,25.5,25.5S400.6,315,386.5,315z M582,337c-2,6-6,20-13,29s-6,10-14,16s-25,11-35,12s-23.7,1-35.4,0 c-11.6-1-22.6-5-31.6-11s-12-8-17-18s-7-15-7-20s4-21,3-19s5-11,11-11c0,0,129-5,134,2S584,331,582,337z M626.5,315 c-10.8,0-19.5-10.5-19.5-23.5s8.7-23.5,19.5-23.5s19.5,10.5,19.5,23.5S637.3,315,626.5,315z"/><path d="M690,956l-5.7-9.7L683,945l-6.6,0.5c1.6,2.5,2.6,3.9,2.6,3.9L690,956z" class="st2"/><circle cx="386.5" cy="289.5" r="25.5" class="st2"/><ellipse cx="626.5" cy="291.5" class="st2" rx="19.5" ry="23.5"/><path d="M443,315c-6,0-12,13-11,11s-3,14-3,19s2,10,7,20s8,12,17,18s20,10,31.6,11c11.6,1,25.4,1,35.4,0s27-6,35-12 s7-7,14-16s11-23,13-29s0-13-5-20S443,315,443,315z" class="st2"/></g><path d="M187,624c0,0,0.5,0.2,1.4,0.6c5.8,2.6,29.1,12.8,51.6,15.4c26,3,55-1,62-3c3.5-1,10.5-4.5,17.1-8.5 S332,620,334,617c4-6-15,10-15,10s-10,6-16,8s-8,2-18,3s-10,1-19,1s-7,0-22-1s-9-1-28-6s-30-9-30-9L187,624z" class="st2"/><path d="M818,667c-2-1-6,1.4-6,1.4s-12,1.6-31,1.6s-39-3-39-3c-15-2-63-11-63-11s19,5,35,8s67,13,98,6 C812,670,820,668,818,667z" class="st2"/></g></svg>